<svg width="428" height="446" viewBox="0 0 428 446" fill="none" xmlns="http://www.w3.org/2000/svg">
<g clip-path="url(#clip0_511_2)">
<path opacity="0.49" d="M335.559 333.318C334.991 242.175 409.022 186.626 423.263 143.261C444.656 78.1417 389.303 -7.77192 236.188 47.6343C83.0738 103.04 44.1177 131.743 31.0556 231.531C20.6031 311.385 80.5146 381.704 128.327 409.726C203.134 453.55 336.127 424.461 335.559 333.318Z" fill="url(#paint0_linear_511_2)"/>
<path d="M351.202 273.671C354.947 319.837 336.105 362.715 312.677 391.195C284.957 366.841 265.173 327.079 261.428 280.885C257.683 234.69 270.81 192.321 294.245 163.84C321.972 188.238 347.485 227.506 351.202 273.671Z" fill="url(#paint1_linear_511_2)"/>
<path d="M333.827 96.8086C334.919 136.399 326.35 171.884 312.145 194.942C296.689 172.687 286.172 137.724 285.079 98.1338C283.987 58.5436 292.534 23.0722 306.739 0C322.195 22.2556 332.712 57.2184 333.827 96.8086Z" fill="url(#paint2_linear_511_2)"/>
<path d="M363.301 163.317C365.587 127.416 370.231 62.6909 372.97 24.9703C394.493 58.343 405.319 107.073 399.568 159.851C393.86 212.026 373.193 256.824 345.465 284.882C352.101 249.138 361.216 195.988 363.301 163.317Z" fill="url(#paint3_linear_511_2)"/>
<path d="M315.783 150.768C321.606 97.2383 343.222 51.3876 372.057 23.509C372.373 23.9818 372.661 24.4904 372.97 24.9416C370.231 62.6909 365.587 127.416 363.301 163.317C361.216 195.995 352.101 249.145 345.465 284.889C344.746 285.605 344.028 286.4 343.309 287.116C321.138 253.701 309.945 204.297 315.783 150.768Z" fill="url(#paint4_linear_511_2)"/>
<path d="M311.541 187.299C317.695 220.443 312.979 251.767 300.758 273.671C281.456 257.612 265.835 229.977 259.681 196.855C253.528 163.733 258.243 132.387 270.464 110.483C289.745 126.542 305.366 154.156 311.541 187.299Z" fill="url(#paint5_linear_511_2)"/>
<path d="M353.193 179.287C350.572 179.003 348.86 174.994 349.369 170.334C349.878 165.673 352.415 162.126 355.036 162.41C357.657 162.694 359.369 166.702 358.86 171.363C358.351 176.023 355.814 179.571 353.193 179.287Z" fill="url(#paint6_linear_511_2)"/>
<path d="M338.408 181.97C335.461 178.317 334.737 174.02 336.792 172.375C338.847 170.729 342.902 172.357 345.849 176.011C348.797 179.665 349.52 183.961 347.465 185.607C345.411 187.253 341.355 185.624 338.408 181.97Z" fill="url(#paint7_linear_511_2)"/>
<path d="M333.673 228.051C329.629 223.037 328.639 217.14 331.461 214.88C334.283 212.62 339.85 214.852 343.894 219.866C347.938 224.88 348.929 230.777 346.106 233.037C343.284 235.297 337.718 233.065 333.673 228.051Z" fill="url(#paint8_linear_511_2)"/>
<path d="M332.723 249.454C330.647 243.363 331.743 237.485 335.172 236.325C338.6 235.165 343.063 239.161 345.139 245.252C347.215 251.343 346.119 257.221 342.69 258.382C339.262 259.542 334.799 255.545 332.723 249.454Z" fill="url(#paint9_linear_511_2)"/>
<path d="M408.554 280.24C390.431 315.962 363.365 342.222 335.983 354.098C375.809 316.721 425.232 178.231 425.232 178.231C431.86 207.241 426.677 244.525 408.554 280.24Z" fill="url(#paint10_linear_511_2)"/>
<path d="M352.661 252.082C370.791 216.367 397.857 190.107 425.232 178.231C425.232 178.231 375.809 316.728 335.983 354.098C329.355 325.088 334.545 287.797 352.661 252.082Z" fill="url(#paint11_linear_511_2)"/>
<path d="M352.661 252.082C370.791 216.367 397.857 190.107 425.232 178.231C425.232 178.231 375.809 316.728 335.983 354.098C329.355 325.088 334.545 287.797 352.661 252.082Z" fill="url(#paint12_linear_511_2)"/>
<path d="M372.417 287.199C370.617 286.249 370.536 282.888 372.236 279.694C373.936 276.499 376.772 274.68 378.572 275.63C380.371 276.581 380.452 279.941 378.753 283.136C377.053 286.331 374.216 288.15 372.417 287.199Z" fill="url(#paint13_linear_511_2)"/>
<path d="M348.427 288.828C346.627 287.878 346.547 284.517 348.246 281.323C349.946 278.128 352.783 276.309 354.582 277.259C356.382 278.21 356.463 281.57 354.763 284.765C353.063 287.96 350.226 289.779 348.427 288.828Z" fill="url(#paint14_linear_511_2)"/>
<path d="M361.034 284.927C359.968 281.47 360.683 278.185 362.63 277.589C364.577 276.994 367.019 279.313 368.084 282.769C369.15 286.226 368.435 289.511 366.488 290.107C364.541 290.702 362.099 288.383 361.034 284.927Z" fill="url(#paint15_linear_511_2)"/>
<path d="M356.971 296.027C355.919 292.556 356.651 289.265 358.606 288.677C360.561 288.088 362.999 290.425 364.052 293.896C365.104 297.367 364.372 300.658 362.417 301.247C360.462 301.835 358.023 299.498 356.971 296.027Z" fill="url(#paint16_linear_511_2)"/>
<path d="M344.437 316.595C342.976 311.853 343.954 307.346 346.622 306.53C349.29 305.714 352.638 308.896 354.099 313.639C355.561 318.381 354.583 322.887 351.914 323.704C349.246 324.52 345.899 321.337 344.437 316.595Z" fill="url(#paint17_linear_511_2)"/>
<path d="M342.211 340.879C339.424 340.735 337.373 336.603 337.63 331.649C337.887 326.694 340.355 322.794 343.142 322.938C345.93 323.082 347.981 327.214 347.724 332.169C347.467 337.123 344.999 341.023 342.211 340.879Z" fill="url(#paint18_linear_511_2)"/>
<path d="M241.616 192.987H268.933C269.927 192.987 270.879 193.38 271.582 194.08C272.284 194.78 272.679 195.729 272.679 196.719V213.495C272.679 214.484 272.284 215.434 271.582 216.134C270.879 216.833 269.927 217.227 268.933 217.227H262.967L257.359 224.92H255.289L247.561 217.227H241.594C240.601 217.227 239.648 216.833 238.946 216.134C238.243 215.434 237.849 214.484 237.849 213.495V196.719C237.849 196.227 237.946 195.74 238.136 195.286C238.326 194.831 238.603 194.419 238.953 194.072C239.304 193.725 239.719 193.451 240.176 193.265C240.633 193.078 241.122 192.984 241.616 192.987Z" fill="url(#paint19_linear_511_2)"/>
<path d="M243.686 192.987H271.004C271.997 192.987 272.95 193.38 273.652 194.08C274.354 194.78 274.749 195.729 274.749 196.719V213.495C274.749 214.484 274.354 215.434 273.652 216.134C272.95 216.833 271.997 217.227 271.004 217.227H265.037L257.359 224.92L249.66 217.248H243.693C242.7 217.248 241.747 216.855 241.045 216.155C240.343 215.455 239.948 214.506 239.948 213.516V196.719C239.948 195.73 240.342 194.782 241.042 194.082C241.743 193.383 242.694 192.989 243.686 192.987Z" fill="url(#paint20_linear_511_2)"/>
<path opacity="0.49" d="M105.618 78.4354C103.418 85.9781 111.506 92.1455 118.069 87.9766C133.575 78.1202 164.681 62.1108 188.699 56.0652C222.4 47.577 194.364 6.95534 167.679 4.49125C140.994 2.02716 109.536 65.4846 105.733 78.0772L105.618 78.4354Z" fill="url(#paint21_linear_511_2)"/>
<path opacity="0.45" d="M63.7431 191.153H102.793V230.063H63.7431V191.153Z" fill="url(#paint22_linear_511_2)"/>
<path d="M114.46 224.203L108.508 222.47C102.555 220.736 102.757 208.43 102.757 208.43V187.829H63.7431V208.445C63.7431 208.445 63.5059 220.758 69.4941 222.484L75.4105 224.203H114.46Z" fill="url(#paint23_linear_511_2)"/>
<path opacity="0.45" d="M0.410596 237.937L39.1582 233.107L44.0051 271.716L5.25747 276.546L0.410596 237.937Z" fill="url(#paint24_linear_511_2)"/>
<path d="M54.8578 264.445L48.7329 263.464C42.608 262.483 41.314 250.241 41.314 250.241L38.7477 229.819L-2.67029e-05 234.647L2.56638 255.069C2.56638 255.069 3.86037 267.311 9.98524 268.292L16.0813 269.28L54.8578 264.445Z" fill="url(#paint25_linear_511_2)"/>
<path opacity="0.45" d="M61.7014 124.227L100.118 136.289L88.0128 174.568L49.596 162.506L61.7014 124.227Z" fill="url(#paint26_linear_511_2)"/>
<path d="M101.326 172.393L96.0065 168.855C90.6867 165.316 94.7484 153.275 94.7484 153.275L101.154 133.025L62.7439 120.962L56.3386 141.212C56.3386 141.212 52.277 153.246 57.5967 156.792L62.9164 160.331L101.326 172.393Z" fill="url(#paint27_linear_511_2)"/>
<mask id="mask0_511_2" style="mask-type:luminance" maskUnits="userSpaceOnUse" x="29" y="29" width="399" height="401">
<path d="M335.559 333.318C334.991 242.175 409.022 186.626 423.263 143.261C444.656 78.1417 389.303 -7.77192 236.188 47.6343C83.0738 103.04 44.1177 131.743 31.0556 231.531C20.6031 311.385 80.5146 381.704 128.327 409.726C203.134 453.55 336.127 424.461 335.559 333.318Z" fill="white"/>
</mask>
<g mask="url(#mask0_511_2)">
<path d="M302.412 270.763C302.412 270.763 300.974 255.936 306.121 249.023C311.268 242.111 318.04 239.926 319.643 238.279C321.246 236.631 338.622 219.476 342.281 218.1C343.661 217.585 348.751 216.431 346.134 223.981C343.517 231.531 329.83 238.408 330.505 240.707C331.181 243.006 338.111 244.926 340.62 251.896C343.129 258.865 344.214 265.95 336.673 268.034C329.132 270.118 313.489 282.081 313.489 282.081L302.412 270.763Z" fill="url(#paint28_linear_511_2)"/>
<path d="M313.353 276.529C313.353 276.529 320.98 271.179 320.98 268.156C320.98 265.133 318.011 250.549 318.011 250.549C318.011 250.549 322.281 262.726 330.951 268.399C331.67 268.843 332.288 269.23 332.928 269.588C325.25 273.335 314.668 281.336 313.806 281.988L313.554 278.807L313.353 276.529Z" fill="url(#paint29_linear_511_2)"/>
<path d="M214.298 237.763L251.781 307.739L300.104 259.703C300.104 259.703 312.907 268.378 315.035 276.322L317.192 284.265C317.192 284.265 261.248 339.199 253.434 343.948C245.62 348.697 201.006 317.323 201.006 317.323L214.298 237.763Z" fill="url(#paint30_linear_511_2)"/>
<path d="M147.637 227.548C147.637 227.548 111.692 240.241 103.066 249.167C94.4393 258.092 108.17 345.108 108.141 362.142C108.112 379.176 105.747 440.42 105.747 440.42C105.747 440.42 161.734 451.358 190.92 442.605C220.524 433.73 227.073 431.144 227.073 431.144C227.073 431.144 228.058 321.549 227.569 301.965C227.08 282.382 221.286 246 214.327 237.727C207.368 229.454 186.161 228.415 186.161 228.415L147.637 227.548Z" fill="url(#paint31_linear_511_2)"/>
<path d="M198.677 323.512C198.677 323.512 175.558 350.645 158.003 363.403C140.448 376.16 139.65 397.785 145.128 410.106C150.605 422.426 198.591 420.671 211.984 424.589C217.218 426.194 222.241 428.419 226.943 431.215C226.016 431.566 218.425 434.346 190.899 442.605C161.719 451.358 105.726 440.42 105.726 440.42C105.726 440.42 108.098 379.176 108.098 362.142C108.098 356.691 106.703 344.07 105.072 329.142L198.677 323.512Z" fill="url(#paint32_linear_511_2)"/>
<path d="M186.284 227.821L194.709 229.468C194.709 229.468 195.521 235.492 188.548 241.559C181.575 247.626 172.639 246.695 163.258 242.154C153.876 237.612 147.636 227.548 147.636 227.548L153.632 226.195L186.284 227.821Z" fill="white"/>
<path d="M191.488 205.35L186.133 228.501C186.133 228.501 182.538 232.799 172.769 232.699C162.999 232.598 153.625 226.252 153.625 226.252L153.905 202.571L191.488 205.35Z" fill="url(#paint33_linear_511_2)"/>
<path d="M206.47 121.643C206.47 121.643 207.836 154.915 207.943 166.541C208.051 178.166 193.566 180.795 193.566 180.795L172.977 158.303L183.142 123.777L206.47 121.643Z" fill="url(#paint34_linear_511_2)"/>
<path d="M205.406 161.305C204.406 174.377 203.084 190.165 197.254 203.86C191.424 217.556 164.02 219.905 155.149 208.71C146.278 197.514 143.503 179.878 143.503 179.878C143.503 179.878 134.064 180.308 131.807 173.238C129.549 166.168 130.369 155.703 134.783 153.74C139.197 151.778 143.323 156.692 143.323 156.692C143.323 156.692 142.051 143.082 151.95 134.83C161.849 126.578 198.677 130.332 200.654 132.122C202.631 133.913 206.405 148.232 205.406 161.305Z" fill="url(#paint35_linear_511_2)"/>
<path d="M149.11 174.005C149.11 174.005 146.005 157.114 147.464 149.55C148.923 141.986 153.258 137.058 162.057 134.221C170.856 131.385 195.845 134.937 201.466 133.433C207.088 131.929 210.38 129.35 208.698 118.269C207.016 107.188 191.445 91.3145 168.728 93.091C146.012 94.8674 135.056 104.774 127.472 111.428C119.888 118.083 124.028 136.807 125.682 152.494C127.335 168.181 132.296 189.599 136.774 197.17C141.253 204.741 151.54 203.294 151.54 203.294L143.711 178.41C143.711 178.41 139.909 179.986 135.689 174.786C131.469 169.585 129.938 160.531 132.562 156.233C135.185 151.935 142.13 153.139 144.229 158.776C146.328 164.413 149.11 174.005 149.11 174.005Z" fill="url(#paint36_linear_511_2)"/>
<path d="M192.998 165.753C192.998 165.753 195.557 182.543 194.917 186.683C194.277 190.823 183.537 187.528 183.537 187.528" stroke="#EB6057" stroke-width="0.717333" stroke-linecap="round" stroke-linejoin="round"/>
<path d="M150.239 119.293C162.143 114.996 197.512 126.456 202.717 121.621C204.32 120.131 205.593 116.607 206.664 112.374C207.667 114.24 208.364 116.255 208.727 118.341C210.409 129.429 207.131 132.029 201.495 133.505C195.859 134.98 170.885 131.456 162.086 134.293C153.287 137.129 148.952 142.058 147.493 149.622C146.033 157.186 149.11 174.062 149.11 174.062C149.11 174.062 138.334 123.57 150.239 119.293Z" fill="url(#paint37_linear_511_2)"/>
<path d="M142.252 163.561C142.252 163.561 139.125 161.348 137.989 164.184C136.853 167.021 136.904 169.778 140.498 171.627C142.504 172.658 143.805 170.638 143.805 170.638" stroke="#EB6057" stroke-width="0.717333" stroke-linecap="round" stroke-linejoin="round"/>
<path d="M200.783 296.285C200.783 296.285 205.319 288.241 209.762 284.824C214.205 281.407 223.27 281.909 223.27 281.909L219.604 294.086L200.783 296.285Z" fill="url(#paint38_linear_511_2)"/>
<path d="M210.833 333.082L219.072 246.86C219.21 245.671 219.761 244.567 220.628 243.738C221.495 242.909 222.625 242.407 223.823 242.319L284.756 239.597C285.683 239.546 286.596 239.836 287.322 240.413L290.694 242.67L288.537 245.478L280.471 329.966C280.333 331.155 279.782 332.259 278.915 333.088C278.048 333.917 276.918 334.418 275.719 334.507L217.138 337.122L215.786 338.855L212.494 336.627L212.372 336.541L212.249 336.455C211.743 336.061 211.347 335.544 211.099 334.953C210.851 334.362 210.76 333.718 210.833 333.082Z" fill="#223762"/>
<path d="M218.374 339.686L279.307 336.964C280.505 336.875 281.635 336.374 282.502 335.545C283.369 334.716 283.92 333.612 284.058 332.423L292.29 246.208C292.363 245.666 292.314 245.115 292.146 244.595C291.978 244.074 291.696 243.598 291.32 243.2C290.944 242.802 290.483 242.492 289.972 242.294C289.461 242.096 288.912 242.014 288.365 242.054L227.432 244.776C226.234 244.864 225.104 245.366 224.237 246.195C223.37 247.024 222.819 248.128 222.68 249.317L214.449 335.531C214.376 336.073 214.425 336.624 214.593 337.145C214.761 337.665 215.043 338.142 215.419 338.54C215.795 338.938 216.255 339.247 216.767 339.446C217.278 339.644 217.827 339.726 218.374 339.686Z" fill="url(#paint39_linear_511_2)"/>
<path d="M255.037 273.628C255.349 272.772 255.529 271.874 255.569 270.964C256.587 270.814 257.626 270.915 258.596 271.257C262.262 272.583 263.973 277.031 262.42 281.2C260.867 285.369 256.669 287.646 252.974 286.35C250.099 285.311 248.445 282.324 248.625 279.072C250.085 278.82 251.45 278.182 252.578 277.224C253.706 276.267 254.556 275.025 255.037 273.628Z" fill="#D6E3FA"/>
<path d="M241.148 324.708L263.283 323.72L263.7 319.343L241.565 320.331L241.148 324.708Z" fill="url(#paint40_linear_511_2)"/>
<path d="M237.993 328.161L265.806 326.914L266.043 324.472L238.223 325.711L237.993 328.161Z" fill="url(#paint41_linear_511_2)"/>
<path d="M194.407 301.091C194.407 301.091 208.382 290.225 214.399 287.238C220.416 284.251 237.691 284.194 241.163 286.042C244.635 287.89 244.376 298.577 243.169 302.324C241.961 306.07 228.662 312.158 220.711 314.501C212.76 316.843 196.743 321.585 196.743 321.585L194.407 301.091Z" fill="url(#paint42_linear_511_2)"/>
<path d="M139.952 277.253C139.952 277.253 143.898 303.627 147.946 306.07C151.993 308.512 174.638 306.557 174.638 306.557L141.375 339.607C141.375 339.607 118.299 339.063 117.487 338.511C116.674 337.96 114.453 301.743 114.453 301.743L139.952 277.253Z" fill="url(#paint43_linear_511_2)"/>
<path d="M135.84 254.417C135.84 254.417 128.162 243.551 116.106 244.611C113.842 244.811 111.858 245.077 110.14 245.377C107.284 245.874 104.68 247.318 102.753 249.476C100.825 251.633 99.6863 254.377 99.5218 257.261C98.2494 279.187 95.302 336.054 98.1487 348.153C98.259 348.63 98.3812 349.096 98.5154 349.55C102.893 364.37 120.571 370.659 133.834 362.658L201.193 322.008C201.193 322.008 205.391 308.061 200.309 302.295L195.219 296.564C195.219 296.564 141.619 323.018 136.559 323.906C131.498 324.794 145.746 287.374 142.906 273.693C140.067 260.011 135.84 254.417 135.84 254.417Z" fill="url(#paint44_linear_511_2)"/>
</g>
</g>
<defs>
<linearGradient id="paint0_linear_511_2" x1="1019.1" y1="-341.557" x2="1068.79" y2="-387.484" gradientUnits="userSpaceOnUse">
<stop stop-color="#EAF1FC"/>
<stop offset="1" stop-color="#C0D4F4"/>
</linearGradient>
<linearGradient id="paint1_linear_511_2" x1="353.001" y1="280.832" x2="259.916" y2="273.358" gradientUnits="userSpaceOnUse">
<stop stop-color="#223762"/>
<stop offset="1" stop-color="#041B48"/>
</linearGradient>
<linearGradient id="paint2_linear_511_2" x1="282.129" y1="3.37666" x2="355.343" y2="166.344" gradientUnits="userSpaceOnUse">
<stop stop-color="#223762"/>
<stop offset="1" stop-color="#041B48"/>
</linearGradient>
<linearGradient id="paint3_linear_511_2" x1="399.599" y1="159.307" x2="358.78" y2="154.849" gradientUnits="userSpaceOnUse">
<stop stop-color="#3769A5"/>
<stop offset="1" stop-color="#08448B"/>
</linearGradient>
<linearGradient id="paint4_linear_511_2" x1="334.467" y1="24.9486" x2="371.897" y2="370.035" gradientUnits="userSpaceOnUse">
<stop stop-color="#4C93F4"/>
<stop offset="1" stop-color="#0B63DA"/>
</linearGradient>
<linearGradient id="paint5_linear_511_2" x1="257.497" y1="95.775" x2="305.175" y2="260.317" gradientUnits="userSpaceOnUse">
<stop stop-color="#3769A5"/>
<stop offset="1" stop-color="#08448B"/>
</linearGradient>
<linearGradient id="paint6_linear_511_2" x1="340.461" y1="118.217" x2="345.202" y2="136.627" gradientUnits="userSpaceOnUse">
<stop stop-color="#4C93F4"/>
<stop offset="1" stop-color="#0B63DA"/>
</linearGradient>
<linearGradient id="paint7_linear_511_2" x1="290.897" y1="148.899" x2="307.3" y2="158.599" gradientUnits="userSpaceOnUse">
<stop stop-color="#4C93F4"/>
<stop offset="1" stop-color="#0B63DA"/>
</linearGradient>
<linearGradient id="paint8_linear_511_2" x1="270.297" y1="183.737" x2="286.7" y2="193.437" gradientUnits="userSpaceOnUse">
<stop stop-color="#4C93F4"/>
<stop offset="1" stop-color="#0B63DA"/>
</linearGradient>
<linearGradient id="paint9_linear_511_2" x1="281.133" y1="177.375" x2="293.204" y2="192.091" gradientUnits="userSpaceOnUse">
<stop stop-color="#4C93F4"/>
<stop offset="1" stop-color="#0B63DA"/>
</linearGradient>
<linearGradient id="paint10_linear_511_2" x1="426.783" y1="168.885" x2="367.669" y2="333.214" gradientUnits="userSpaceOnUse">
<stop stop-color="#3769A5"/>
<stop offset="1" stop-color="#08448B"/>
</linearGradient>
<linearGradient id="paint11_linear_511_2" x1="407.487" y1="161.942" x2="348.372" y2="326.278" gradientUnits="userSpaceOnUse">
<stop stop-color="#4C93F4"/>
<stop offset="1" stop-color="#0B63DA"/>
</linearGradient>
<linearGradient id="paint12_linear_511_2" x1="415.854" y1="138.85" x2="331.123" y2="374.402" gradientUnits="userSpaceOnUse">
<stop stop-color="#4C93F4"/>
<stop offset="1" stop-color="#0B63DA"/>
</linearGradient>
<linearGradient id="paint13_linear_511_2" x1="380.792" y1="239.817" x2="378.949" y2="254.364" gradientUnits="userSpaceOnUse">
<stop stop-color="#4C93F4"/>
<stop offset="1" stop-color="#0B63DA"/>
</linearGradient>
<linearGradient id="paint14_linear_511_2" x1="356.799" y1="241.452" x2="354.959" y2="255.993" gradientUnits="userSpaceOnUse">
<stop stop-color="#4C93F4"/>
<stop offset="1" stop-color="#0B63DA"/>
</linearGradient>
<linearGradient id="paint15_linear_511_2" x1="336.467" y1="247.717" x2="345.434" y2="259.334" gradientUnits="userSpaceOnUse">
<stop stop-color="#4C93F4"/>
<stop offset="1" stop-color="#0B63DA"/>
</linearGradient>
<linearGradient id="paint16_linear_511_2" x1="332.512" y1="258.598" x2="341.451" y2="270.289" gradientUnits="userSpaceOnUse">
<stop stop-color="#4C93F4"/>
<stop offset="1" stop-color="#0B63DA"/>
</linearGradient>
<linearGradient id="paint17_linear_511_2" x1="311.709" y1="266.813" x2="320.685" y2="278.435" gradientUnits="userSpaceOnUse">
<stop stop-color="#4C93F4"/>
<stop offset="1" stop-color="#0B63DA"/>
</linearGradient>
<linearGradient id="paint18_linear_511_2" x1="321.305" y1="265.329" x2="325.755" y2="279.304" gradientUnits="userSpaceOnUse">
<stop stop-color="#4C93F4"/>
<stop offset="1" stop-color="#0B63DA"/>
</linearGradient>
<linearGradient id="paint19_linear_511_2" x1="271.449" y1="212.743" x2="258.567" y2="207.237" gradientUnits="userSpaceOnUse">
<stop stop-color="#FFC063"/>
<stop offset="0.95" stop-color="#E44D0B"/>
</linearGradient>
<linearGradient id="paint20_linear_511_2" x1="253.319" y1="185.38" x2="265.535" y2="245.488" gradientUnits="userSpaceOnUse">
<stop stop-color="#FFC063"/>
<stop offset="0.95" stop-color="#E44D0B"/>
</linearGradient>
<linearGradient id="paint21_linear_511_2" x1="602.588" y1="825.718" x2="637.425" y2="880.081" gradientUnits="userSpaceOnUse">
<stop stop-color="#EAF1FC"/>
<stop offset="1" stop-color="#C0D4F4"/>
</linearGradient>
<linearGradient id="paint22_linear_511_2" x1="88.3001" y1="228.523" x2="75.6746" y2="183.3" gradientUnits="userSpaceOnUse">
<stop stop-color="#223762"/>
<stop offset="1" stop-color="#041B48"/>
</linearGradient>
<linearGradient id="paint23_linear_511_2" x1="90.9599" y1="225.084" x2="78.1488" y2="179.217" gradientUnits="userSpaceOnUse">
<stop stop-color="#4C93F4"/>
<stop offset="1" stop-color="#0B63DA"/>
</linearGradient>
<linearGradient id="paint24_linear_511_2" x1="29.4398" y1="271.979" x2="11.302" y2="228.656" gradientUnits="userSpaceOnUse">
<stop stop-color="#223762"/>
<stop offset="1" stop-color="#041B48"/>
</linearGradient>
<linearGradient id="paint25_linear_511_2" x1="31.6483" y1="268.244" x2="13.2613" y2="224.31" gradientUnits="userSpaceOnUse">
<stop stop-color="#4C93F4"/>
<stop offset="1" stop-color="#0B63DA"/>
</linearGradient>
<linearGradient id="paint26_linear_511_2" x1="74.2468" y1="168.571" x2="75.7902" y2="120.182" gradientUnits="userSpaceOnUse">
<stop stop-color="#223762"/>
<stop offset="1" stop-color="#041B48"/>
</linearGradient>
<linearGradient id="paint27_linear_511_2" x1="86.5187" y1="132.475" x2="62.4656" y2="209.083" gradientUnits="userSpaceOnUse">
<stop stop-color="#FFC063"/>
<stop offset="0.95" stop-color="#E44D0B"/>
</linearGradient>
<linearGradient id="paint28_linear_511_2" x1="333.886" y1="246.919" x2="287.985" y2="277.157" gradientUnits="userSpaceOnUse">
<stop stop-color="#F8A695"/>
<stop offset="1" stop-color="#E56045"/>
</linearGradient>
<linearGradient id="paint29_linear_511_2" x1="349.133" y1="260.587" x2="312.027" y2="266.96" gradientUnits="userSpaceOnUse">
<stop stop-color="#F8A695"/>
<stop offset="1" stop-color="#E56045"/>
</linearGradient>
<linearGradient id="paint30_linear_511_2" x1="338.469" y1="276.313" x2="326.135" y2="278.051" gradientUnits="userSpaceOnUse">
<stop stop-color="#FFC063"/>
<stop offset="0.95" stop-color="#E44D0B"/>
</linearGradient>
<linearGradient id="paint31_linear_511_2" x1="90.5184" y1="209.627" x2="264.917" y2="536.216" gradientUnits="userSpaceOnUse">
<stop stop-color="#FFC063"/>
<stop offset="1" stop-color="#E58F0F"/>
</linearGradient>
<linearGradient id="paint32_linear_511_2" x1="308.908" y1="349.92" x2="253.05" y2="362.505" gradientUnits="userSpaceOnUse">
<stop stop-color="#FFC063"/>
<stop offset="0.95" stop-color="#E44D0B"/>
</linearGradient>
<linearGradient id="paint33_linear_511_2" x1="169.698" y1="234.041" x2="170.614" y2="215.654" gradientUnits="userSpaceOnUse">
<stop stop-color="#F8A695"/>
<stop offset="1" stop-color="#E56045"/>
</linearGradient>
<linearGradient id="paint34_linear_511_2" x1="186.144" y1="129.206" x2="188.809" y2="137.304" gradientUnits="userSpaceOnUse">
<stop stop-color="#223762"/>
<stop offset="1" stop-color="#041B48"/>
</linearGradient>
<linearGradient id="paint35_linear_511_2" x1="177.565" y1="204.941" x2="158.899" y2="122.443" gradientUnits="userSpaceOnUse">
<stop stop-color="#F8A695"/>
<stop offset="1" stop-color="#E56045"/>
</linearGradient>
<linearGradient id="paint36_linear_511_2" x1="165.948" y1="124.436" x2="151.794" y2="204.726" gradientUnits="userSpaceOnUse">
<stop stop-color="#223762"/>
<stop offset="1" stop-color="#041B48"/>
</linearGradient>
<linearGradient id="paint37_linear_511_2" x1="144.239" y1="153.578" x2="174.629" y2="127.963" gradientUnits="userSpaceOnUse">
<stop stop-color="#223762"/>
<stop offset="1" stop-color="#041B48"/>
</linearGradient>
<linearGradient id="paint38_linear_511_2" x1="230.461" y1="295.527" x2="226.538" y2="294.146" gradientUnits="userSpaceOnUse">
<stop stop-color="#F8A695"/>
<stop offset="1" stop-color="#E56045"/>
</linearGradient>
<linearGradient id="paint39_linear_511_2" x1="254.134" y1="332.116" x2="224.85" y2="235.003" gradientUnits="userSpaceOnUse">
<stop stop-color="#4C93F4"/>
<stop offset="1" stop-color="#0B63DA"/>
</linearGradient>
<linearGradient id="paint40_linear_511_2" x1="247.884" y1="314.535" x2="249.45" y2="317.622" gradientUnits="userSpaceOnUse">
<stop stop-color="#4C93F4"/>
<stop offset="1" stop-color="#0B63DA"/>
</linearGradient>
<linearGradient id="paint41_linear_511_2" x1="246.112" y1="315.434" x2="247.678" y2="318.522" gradientUnits="userSpaceOnUse">
<stop stop-color="#4C93F4"/>
<stop offset="1" stop-color="#0B63DA"/>
</linearGradient>
<linearGradient id="paint42_linear_511_2" x1="230.073" y1="297.404" x2="211.051" y2="302.762" gradientUnits="userSpaceOnUse">
<stop stop-color="#F8A695"/>
<stop offset="1" stop-color="#E56045"/>
</linearGradient>
<linearGradient id="paint43_linear_511_2" x1="182.979" y1="264.289" x2="110.211" y2="340.231" gradientUnits="userSpaceOnUse">
<stop stop-color="#FFC063"/>
<stop offset="0.95" stop-color="#E44D0B"/>
</linearGradient>
<linearGradient id="paint44_linear_511_2" x1="87.5386" y1="211.216" x2="261.937" y2="537.804" gradientUnits="userSpaceOnUse">
<stop stop-color="#FFC063"/>
<stop offset="1" stop-color="#E58F0F"/>
</linearGradient>
<clipPath id="clip0_511_2">
<rect width="428" height="446" fill="white" transform="matrix(-1 0 0 1 428 0)"/>
</clipPath>
</defs>
</svg>
