<svg width="60" height="60" viewBox="0 0 60 60" fill="none" xmlns="http://www.w3.org/2000/svg">
<circle cx="30" cy="30" r="30" fill="#6261D8"/>
<path d="M21.25 25C18.75 25 17.5 26.25 17.5 28.75V38.75C17.5 41.25 18.75 42.5 21.25 42.5H31.25C28.75 42.5 27.5 41.25 27.5 38.75V25M21.25 25H27.5M21.25 25V22.5C21.25 21.125 22.375 20 23.75 20H27.6375C27.5375 20.375 27.5 20.7875 27.5 21.25V25M32.5 25V31.25M37.5 25V31.25M22.5 31.25V36.25M36.25 36.25H33.75C33.0625 36.25 32.5 36.8125 32.5 37.5V42.5H37.5V37.5C37.5 36.8125 36.9375 36.25 36.25 36.25Z" stroke="white" stroke-width="2" stroke-miterlimit="10" stroke-linecap="round" stroke-linejoin="round"/>
<path d="M27.5 38.75V21.25C27.5 18.75 28.75 17.5 31.25 17.5H38.75C41.25 17.5 42.5 18.75 42.5 21.25V38.75C42.5 41.25 41.25 42.5 38.75 42.5H31.25C28.75 42.5 27.5 41.25 27.5 38.75Z" stroke="white" stroke-width="2" stroke-miterlimit="10" stroke-linecap="round" stroke-linejoin="round"/>
</svg>
