<svg width="60" height="60" viewBox="0 0 60 60" fill="none" xmlns="http://www.w3.org/2000/svg">
<circle cx="30" cy="30" r="30" fill="#D86161"/>
<path d="M17.5 42.5H42.5" stroke="white" stroke-width="2" stroke-miterlimit="10" stroke-linecap="round" stroke-linejoin="round"/>
<path d="M27.1875 20V42.5H32.8125V20C32.8125 18.625 32.25 17.5 30.5625 17.5H29.4375C27.75 17.5 27.1875 18.625 27.1875 20ZM18.75 27.5V42.5H23.75V27.5C23.75 26.125 23.25 25 21.75 25H20.75C19.25 25 18.75 26.125 18.75 27.5ZM36.25 33.75V42.5H41.25V33.75C41.25 32.375 40.75 31.25 39.25 31.25H38.25C36.75 31.25 36.25 32.375 36.25 33.75Z" stroke="white" stroke-width="2" stroke-linecap="round" stroke-linejoin="round"/>
</svg>
